# xmcd
#
# Track frame offsets: 
#        150
#        18688
#        42923
#        59994
#        82198
#        108279
#        124969
#        141584
#        170517
#        191427
#
# Disc length: 2867 seconds
#
# Revision: 2
# Processed by: cddbd v1.5.2PL0 Copyright (c) Steve Scherf et al.
# Submitted via: ExactAudioCopyFreeDBPlugin 1.0
#
DISCID=9a0b310a
DTITLE=New Orleans Rhythm Conspiracy - Dancin' Ground
DYEAR=2007
DGENRE=Funk
TTITLE0=In This World
TTITLE1=Dancin' Ground
TTITLE2=Just Like That
TTITLE3=Skeleton City
TTITLE4=Landslide
TTITLE5=Dysfunction
TTITLE6=Tell Us the Truth
TTITLE7=Blue Moon Rising
TTITLE8=Time Out
TTITLE9=Down to the Hole
EXTD=
EXTT0=
EXTT1=
EXTT2=
EXTT3=
EXTT4=
EXTT5=
EXTT6=
EXTT7=
EXTT8=
EXTT9=
PLAYORDER=
